<svg xmlns="http://www.w3.org/2000/svg" width="800" height="800" viewBox="0 0 256 256" xml:space="preserve" stroke="currentColor" fill="currentColor">
  <path class="st0" d="M195.82 210.063c-1.146.164-2.348-.763-3.484-1.314-1.563-.764-3.158-1.462-4.734-2.195a624 624 0 0 1-7.763-3.658 326 326 0 0 1-4.237-2.08c-1.968-.986-3.306-.686-5.166.203a235 235 0 0 1-16.541 7.145c-1.967.76-3.1 1.723-3.75 3.688-2.078 6.271-4.424 12.457-6.375 18.767-.709 2.295-1.832 2.849-4.035 2.804-6.262-.124-12.534-.195-18.792.026-2.833.102-4.19-.716-5.041-3.515-1.92-6.315-4.158-12.543-6.466-18.729-.411-1.104-1.624-2.188-2.735-2.709-5.756-2.697-11.562-5.3-17.441-7.72-1.314-.539-3.216-.726-4.457-.184-6.159 2.697-12.223 5.622-18.239 8.631-1.796.897-2.866.67-4.243-.763a578 578 0 0 0-14.539-14.55c-1.334-1.293-1.469-2.322-.666-3.959 2.758-5.613 5.207-11.383 8.085-16.932 1.313-2.533.983-4.408-.252-6.845-2.554-5.034-4.889-10.216-6.802-15.521-.84-2.329-2.021-3.426-4.199-4.137-6.281-2.056-12.488-4.334-18.782-6.346-1.899-.604-2.604-1.463-2.568-3.479.118-6.736.132-13.479-.006-20.213-.044-2.168.733-3.111 2.741-3.761 6.51-2.108 12.989-4.324 19.401-6.71 1.215-.451 2.441-1.693 3.024-2.883a367 367 0 0 0 7.95-17.336c.544-1.278.704-3.164.168-4.385-2.704-6.158-5.63-12.22-8.627-18.243-.883-1.774-.723-2.874.733-4.272 4.86-4.666 9.653-9.411 14.282-14.305 1.564-1.654 2.781-1.514 4.571-.623 6.022 2.997 12.071 5.948 18.21 8.695 1.161.521 2.918.394 4.163-.07a346 346 0 0 0 17.047-6.859c1.308-.569 2.758-1.778 3.269-3.045 2.421-6.014 4.61-12.124 6.724-18.254.65-1.885 1.604-2.528 3.586-2.495 6.855.117 13.716.105 20.57.006 1.871-.026 2.682.685 3.27 2.399 2.064 6.024 4.348 11.975 6.434 17.993.677 1.947 1.73 2.908 3.799 3.598 5.693 1.901 11.197 4.361 16.853 6.383 1.339.478 3.195.587 4.447.037 6.048-2.657 12.009-5.52 17.913-8.484 1.857-.932 3.043-.94 4.559.663 4.709 4.98 9.657 9.733 14.342 14.737.688.735.957 2.579.539 3.518-2.832 6.357-5.986 12.571-8.813 18.931-.513 1.147-.353 2.879.104 4.12 2.023 5.527 4.396 10.929 6.366 16.474.729 2.046 1.563 3.333 3.759 4.061 5.819 1.93 11.504 4.272 17.313 6.236 2.182.737 2.855 1.861 2.807 4.104-.145 6.498-.193 13.007.021 19.504.082 2.53-.924 3.489-3.106 4.239-5.909 2.039-11.786 4.188-17.583 6.523-1.191.479-2.386 1.806-2.879 3.023a378 378 0 0 0-6.693 17.852c-.396 1.146-.278 2.766.227 3.883 2.764 6.132 5.798 12.142 8.542 18.281.444.995.401 2.897-.252 3.592a438 438 0 0 1-6.313 6.543c-3.01 3.065-6.059 6.091-8.996 9.225-.412.424-.824.631-1.244.69zm-23.737-83.383c.065-23.207-18.606-42.196-41.567-42.272-23.586-.079-42.52 18.377-42.604 41.532-.087 23.701 18.489 42.607 41.895 42.64 23.393.034 42.211-18.615 42.276-41.9z"/>
</svg>